<svg viewBox="0 0 500 500" xmlns="http://www.w3.org/2000/svg"><g data-name="图层 1"><path d="M215.44 305.85h23.82l5.43-5.2a7.65 7.65 0 0 1 10.61 0l5.43 5.2h23.82c0-3.75 2.42-7.5 7.25-7.5h28.36a81.5 81.5 0 0 0-54.33-121.91c-33.28-6.74-68.23 8.91-85.76 37.86a82.85 82.85 0 0 0-.52 84.06h28.65c4.8-.01 7.24 3.74 7.24 7.49Z" fill="#ffffff" class="fill-f8b62d fill-000000"></path><path d="M180.07 214.3c17.54-28.95 52.48-44.6 85.76-37.86a82.68 82.68 0 0 1 65.94 80.25c.07-9.66 15.07-9.65 15 0a98 98 0 0 0-64-91.07C245 151.8 200.82 164 175.45 195.05c-23.69 29-28.74 69.75-12.79 103.3h16.88a82.85 82.85 0 0 1 .53-84.05Z" fill="#d6d3d2" class="fill-231815"></path><path d="M331.77 256.69c.07 9.65 15.07 9.67 15 0s-14.93-9.69-15 0Z" fill="#d6d3d2" class="fill-231815"></path><path d="M331.77 256.69a83.48 83.48 0 0 1-11.6 41.66H337a97.63 97.63 0 0 0 9.78-41.66c.06 9.67-14.94 9.65-15.01 0ZM257.5 131.84V98.18c0-9.65-15-9.67-15 0v33.65c0 9.66 15 9.67 15 .01ZM250 98.18ZM194 144.78l-16.83-29.15c-4.83-8.36-17.79-.81-13 7.57L181 152.35c4.92 8.36 17.89.81 13-7.57Zm-6.48 3.79-16.83-29.15ZM108.94 183.91l29.15 16.83c8.38 4.84 15.94-8.12 7.57-13L116.51 171c-8.37-4.87-15.94 8.08-7.57 12.91Zm3.79-6.48 29.15 16.83ZM91.49 264.19h33.65c9.65 0 9.67-15 0-15H91.49c-9.65 0-9.67 15 0 15Zm0-7.5ZM408.51 249.19h-33.65c-9.65 0-9.67 15 0 15h33.65c9.65 0 9.67-15 0-15Zm-33.65 7.5ZM361.91 200.74l29.15-16.83c8.36-4.83.81-17.79-7.57-13l-29.15 16.83c-8.34 4.87-.81 17.84 7.57 13Zm25.36-23.3-29.15 16.83ZM318.9 152.35l16.83-29.15c4.84-8.37-8.12-15.94-13-7.57L306 144.78c-4.88 8.37 8.07 15.94 12.9 7.57Zm10.35-32.93-16.83 29.15ZM407.32 298.35H291.8c-4.83 0-7.24 3.75-7.25 7.5s2.41 7.5 7.25 7.5h115.52c9.68 0 9.68-15 0-15ZM171.58 313.35h36.62c4.83 0 7.24-3.75 7.24-7.5s-2.41-7.5-7.24-7.5H92.68c-9.65 0-9.67 15 0 15h78.89Z" fill="#d6d3d2" class="fill-231815"></path><path d="M375.15 338.46h-80.34l-8.71-8.33-25.37-24.28-5.43-5.2a7.65 7.65 0 0 0-10.61 0l-5.43 5.2-25.18 24.09-8.9 8.51h-80.33c-9.65 0-9.67 15 0 15h61.74c7.14 0 14.48.49 21.61 0 3.86-.26 6.59-3.27 9.22-5.92l1-.94.58-.59 10.72-10.26 1.77-1.69L250 316.36c6.65 6.5 13.25 13.12 20 19.61 3.5 3.38 7 6.73 10.63 10 .69.63 1.39 1.24 2.08 1.86 1.24 1.11 2.47 2.22 3.73 3.3 5 4.36 15.88 2.34 22 2.34h66.82c9.54-.01 9.56-15.01-.11-15.01ZM346.5 378.57h-193c-9.65 0-9.67 15 0 15h193c9.65 0 9.67-15 0-15Z" fill="#d6d3d2" class="fill-231815"></path></g></svg>